<svg width="32" height="32" viewBox="0 0 512 512" fill="none" xmlns="http://www.w3.org/2000/svg">
<rect width="512" height="512" fill="#131821"/>
<path d="M162.964 447.035C150.577 447.035 139.148 445.044 128.678 441.063C118.208 437.081 109.065 431.477 101.249 424.251C93.5807 416.878 87.6082 408.325 83.3316 398.592C79.055 388.859 76.9167 378.168 76.9167 366.518C76.9167 354.868 79.055 344.176 83.3316 334.443C87.6082 324.71 93.5807 316.231 101.249 309.005C109.065 301.632 118.208 295.954 128.678 291.972C139.148 287.991 150.577 286 162.964 286C175.499 286 186.928 287.991 197.251 291.972C207.721 295.954 216.79 301.632 224.459 309.005C232.127 316.231 238.099 324.71 242.376 334.443C246.8 344.176 249.012 354.868 249.012 366.518C249.012 378.168 246.8 388.933 242.376 398.813C238.099 408.546 232.127 417.025 224.459 424.251C216.79 431.477 207.721 437.081 197.251 441.063C186.928 445.044 175.499 447.035 162.964 447.035ZM162.964 410.758C168.863 410.758 174.319 409.726 179.333 407.661C184.495 405.597 188.919 402.647 192.605 398.813C196.44 394.831 199.389 390.112 201.454 384.656C203.666 379.2 204.772 373.154 204.772 366.518C204.772 359.734 203.666 353.688 201.454 348.379C199.389 342.923 196.44 338.277 192.605 334.443C188.919 330.462 184.495 327.439 179.333 325.374C174.319 323.309 168.863 322.277 162.964 322.277C157.066 322.277 151.536 323.309 146.374 325.374C141.36 327.439 136.936 330.462 133.102 334.443C129.415 338.277 126.466 342.923 124.254 348.379C122.189 353.688 121.157 359.734 121.157 366.518C121.157 373.154 122.189 379.2 124.254 384.656C126.466 390.112 129.415 394.831 133.102 398.813C136.936 402.647 141.36 405.597 146.374 407.661C151.536 409.726 157.066 410.758 162.964 410.758Z" fill="white"/>
<path d="M350.036 447.035C337.648 447.035 326.22 445.044 315.749 441.063C305.279 437.081 296.136 431.477 288.32 424.251C280.652 416.878 274.68 408.325 270.403 398.592C266.126 388.859 263.988 378.168 263.988 366.518C263.988 354.868 266.126 344.176 270.403 334.443C274.68 324.71 280.652 316.231 288.32 309.005C296.136 301.632 305.279 295.954 315.749 291.972C326.22 287.991 337.648 286 350.036 286C362.571 286 373.999 287.991 384.322 291.972C394.792 295.954 403.862 301.632 411.53 309.005C419.198 316.231 425.171 324.71 429.447 334.443C433.871 344.176 436.083 354.868 436.083 366.518C436.083 378.168 433.871 388.933 429.447 398.813C425.171 408.546 419.198 417.025 411.53 424.251C403.862 431.477 394.792 437.081 384.322 441.063C373.999 445.044 362.571 447.035 350.036 447.035ZM350.036 410.758C355.934 410.758 361.391 409.726 366.405 407.661C371.566 405.597 375.99 402.647 379.677 398.813C383.511 394.831 386.46 390.112 388.525 384.656C390.737 379.2 391.843 373.154 391.843 366.518C391.843 359.734 390.737 353.688 388.525 348.379C386.46 342.923 383.511 338.277 379.677 334.443C375.99 330.462 371.566 327.439 366.405 325.374C361.391 323.309 355.934 322.277 350.036 322.277C344.137 322.277 338.607 323.309 333.446 325.374C328.432 327.439 324.008 330.462 320.173 334.443C316.487 338.277 313.537 342.923 311.325 348.379C309.261 353.688 308.229 359.734 308.229 366.518C308.229 373.154 309.261 379.2 311.325 384.656C313.537 390.112 316.487 394.831 320.173 398.813C324.008 402.647 328.432 405.597 333.446 407.661C338.607 409.726 344.137 410.758 350.036 410.758Z" fill="white"/>
<path d="M255.776 117C278.633 117 296.477 123.268 309.306 135.802C322.136 148.337 328.551 166.107 328.551 189.112L328.551 268.938L284.753 268.938L284.753 190.439C284.753 177.167 282.172 167.655 277.011 161.904C271.702 156.153 264.476 153.277 255.333 153.277C246.19 153.277 239.038 156.153 233.877 161.904C228.715 167.655 226.134 177.167 226.134 190.439L226.134 268.938L183 268.938L183 189.112C183 166.107 189.415 148.337 202.245 135.802C215.074 123.268 232.918 117 255.776 117Z" fill="white"/>
<rect x="183" y="47" width="43" height="151" fill="white"/>
</svg>
