<svg width="16" height="16" viewBox="0 0 16 16" fill="none" xmlns="http://www.w3.org/2000/svg">
<g clip-path="url(#clip0_7107_16766)">
<path fill-rule="evenodd" clip-rule="evenodd" d="M9.5 2.6849H6.5C4.61575 2.6849 4.21666 2.71267 3.95809 2.79509C3.23765 3.02471 2.67315 3.58921 2.44352 4.30965C2.36111 4.56822 2.33333 4.96732 2.33333 6.85156C2.33333 8.73581 2.36111 9.1349 2.44352 9.39347C2.67315 10.1139 3.23765 10.6784 3.95809 10.908C4.21666 10.9905 4.61575 11.0182 6.5 11.0182H9.5C11.3842 11.0182 11.7833 10.9905 12.0419 10.908C12.7624 10.6784 13.3269 10.1139 13.5565 9.39347C13.6389 9.1349 13.6667 8.73581 13.6667 6.85156C13.6667 4.96732 13.6389 4.56822 13.5565 4.30965C13.3269 3.58921 12.7624 3.02471 12.0419 2.79509C11.7833 2.71267 11.3842 2.6849 9.5 2.6849ZM0.220383 3.60107C0 4.29251 0 5.14553 0 6.85156C0 8.55759 0 9.41061 0.220383 10.1021C0.679632 11.5429 1.80863 12.6719 3.24951 13.1312C3.38127 13.1732 3.51889 13.2072 3.66717 13.2347V15.6664C3.66717 15.9446 3.98773 16.1004 4.20644 15.9285L7.4862 13.3516H9.5C11.206 13.3516 12.059 13.3516 12.7505 13.1312C14.1914 12.6719 15.3204 11.5429 15.7796 10.1021C16 9.41061 16 8.55759 16 6.85156C16 5.14553 16 4.29251 15.7796 3.60107C15.3204 2.16019 14.1914 1.03119 12.7505 0.571945C12.059 0.351562 11.206 0.351562 9.5 0.351562H6.5C4.79397 0.351562 3.94095 0.351562 3.24951 0.571945C1.80863 1.03119 0.679632 2.16019 0.220383 3.60107ZM5.11975 7.9254C5.73831 7.9254 6.23975 7.42396 6.23975 6.8054C6.23975 6.18684 5.73831 5.6854 5.11975 5.6854C4.5012 5.6854 3.99975 6.18684 3.99975 6.8054C3.99975 7.42396 4.5012 7.9254 5.11975 7.9254ZM9.11986 6.8054C9.11986 7.42396 8.61842 7.9254 7.99986 7.9254C7.3813 7.9254 6.87986 7.42396 6.87986 6.8054C6.87986 6.18684 7.3813 5.6854 7.99986 5.6854C8.61842 5.6854 9.11986 6.18684 9.11986 6.8054ZM10.8802 7.9254C11.4988 7.9254 12.0002 7.42396 12.0002 6.8054C12.0002 6.18684 11.4988 5.6854 10.8802 5.6854C10.2616 5.6854 9.76021 6.18684 9.76021 6.8054C9.76021 7.42396 10.2616 7.9254 10.8802 7.9254Z" fill="url(#paint0_radial_7107_16766)"/>
</g>
<defs>
<radialGradient id="paint0_radial_7107_16766" cx="0" cy="0" r="1" gradientUnits="userSpaceOnUse" gradientTransform="translate(0.187422 13.7104) rotate(-49.515) scale(15.4305 162.235)">
<stop offset="0.192708" stop-color="#7B57C8"/>
<stop offset="1" stop-color="#423361"/>
</radialGradient>
<clipPath id="clip0_7107_16766">
<rect width="16" height="16" fill="white"/>
</clipPath>
</defs>
</svg>
